<svg id="Livello_1" data-name="Livello 1" xmlns="http://www.w3.org/2000/svg" viewBox="0 0 150 150"><g id="noun_live_2146857" data-name="noun live 2146857"><g id="Raggruppa_1085" data-name="Raggruppa 1085"><path id="Tracciato_879" data-name="Tracciato 879" d="M116.21,33.71a5.29,5.29,0,0,0-7.48,7.48h0a47.81,47.81,0,0,1,0,67.57,5.27,5.27,0,0,0,0,7.44l0,0a5.32,5.32,0,0,0,3.68,1.6,4.86,4.86,0,0,0,3.68-1.6A58.43,58.43,0,0,0,116.21,33.71Z" style="fill:#f49848"/><path id="Tracciato_880" data-name="Tracciato 880" d="M98.68,51.13a5.29,5.29,0,1,0-7.48,7.48,23.06,23.06,0,0,1,0,32.6l0,0a5.25,5.25,0,0,0,0,7.43l0,0a5.32,5.32,0,0,0,3.68,1.6,4.84,4.84,0,0,0,3.67-1.6A33.45,33.45,0,0,0,99,51.41Z" style="fill:#f49848"/><path id="Tracciato_881" data-name="Tracciato 881" d="M41.29,41.19a5.29,5.29,0,0,0-7.48-7.48,58.39,58.39,0,0,0,0,82.41,5.31,5.31,0,0,0,3.67,1.6,4.86,4.86,0,0,0,3.68-1.6,5.25,5.25,0,0,0,.05-7.43l-.05,0A47.78,47.78,0,0,1,41.29,41.19Z" style="fill:#f49848"/><path id="Tracciato_882" data-name="Tracciato 882" d="M58.7,58.61a5.29,5.29,0,0,0-7.48-7.48h0a33.68,33.68,0,0,0,0,47.58,5.31,5.31,0,0,0,3.68,1.59,4.82,4.82,0,0,0,3.68-1.59,5.27,5.27,0,0,0,0-7.44l0,0A23.28,23.28,0,0,1,58.7,58.61Z" style="fill:#f49848"/></g><circle id="Ellisse_63" data-name="Ellisse 63" cx="75.01" cy="74.91" r="8.95" style="fill:#f49848"/></g></svg>