<svg xmlns="http://www.w3.org/2000/svg" width="16.793" height="15.5" viewBox="0 0 16.793 15.5"><defs><style>.a{fill:#fff;}</style></defs><path class="a" d="M2.681,6.729A1.692,1.692,0,0,0,1,8.411v7.566a1.688,1.688,0,0,0,1.681,1.678h8.21a1.685,1.685,0,0,0,1.677-1.678V8.411a1.688,1.688,0,0,0-1.677-1.681ZM8.09,2.155A1.872,1.872,0,0,0,6.227,4.022V5.609h4.665a2.812,2.812,0,0,1,2.8,2.8V13.08h2.24a1.873,1.873,0,0,0,1.864-1.867V4.022a1.873,1.873,0,0,0-1.864-1.867Z" transform="translate(-1 -2.155)"/></svg>