<svg id="Livello_1" data-name="Livello 1" xmlns="http://www.w3.org/2000/svg" viewBox="0 0 150 150"><path d="M74.76,10.78c15.69,0,30,2.29,40.4,6C127.1,21,134.41,27.44,134.47,35.18v81.35c0,7.67-7.38,14.13-19.31,18.39-10.42,3.71-24.71,6-40.4,6s-30-2.29-40.4-6c-11.93-4.26-19.31-10.72-19.31-18.39V35.18c.06-7.74,7.36-14.14,19.31-18.39,10.42-3.72,24.71-6,40.4-6Zm0,104.06c-17.44,0-37.93-3-50-10.51v12.2c0,3.12,4.9,6.42,12.82,9.25,9.43,3.36,22.57,5.44,37.18,5.44s27.74-2.08,37.18-5.44c7.92-2.83,12.82-6.13,12.82-9.25v-12.2c-12.07,7.5-32.56,10.51-50,10.51Zm0-9.71c14.61,0,27.74-2.08,37.18-5.44,7.92-2.82,12.82-6.13,12.82-9.25v-14C112.69,84,92.2,87,74.76,87s-37.93-3-50-10.51v14c0,3.12,4.9,6.43,12.82,9.25,9.43,3.36,22.57,5.44,37.18,5.44Zm0-27.86c14.61,0,27.74-2.08,37.18-5.44,7.92-2.82,12.82-6.13,12.82-9.25V49.06c-12.07,7.5-32.56,10.51-50,10.51s-37.93-3-50-10.51V62.58c0,3.12,4.9,6.43,12.82,9.25,9.43,3.36,22.57,5.44,37.18,5.44Zm0-56.78c-14.61,0-27.75,2.08-37.18,5.44-17,6.06-17,12.43,0,18.5,9.44,3.36,22.57,5.44,37.18,5.44s27.74-2.08,37.18-5.44c17-6.07,17-12.44,0-18.5-9.44-3.36-22.57-5.44-37.18-5.44Z" style="fill:#a5a4bd;fill-rule:evenodd"/></svg>