<svg xmlns="http://www.w3.org/2000/svg" width="27.6" height="27.6" viewBox="0 0 27.6 27.6"><defs><style>.a{fill:#2f3380;}</style></defs><g transform="translate(-12.62 -12.62)"><path class="a" d="M26.42,12.62a13.8,13.8,0,1,0,13.8,13.8h0A13.8,13.8,0,0,0,26.42,12.62Zm4.711,21.553H21.709a.738.738,0,1,1,0-1.477h9.421a.738.738,0,1,1,0,1.477Zm-.679-9.3a.744.744,0,0,1,1.139.958v0l-4.607,5.383a.738.738,0,0,1-1.042.065.682.682,0,0,1-.065-.065l-4.622-5.383a.74.74,0,1,1,1.126-.96l3.3,3.862V18.3a.738.738,0,1,1,1.477,0v10.44Z" transform="translate(0 0)"/></g></svg>