<svg id="Livello_1" data-name="Livello 1" xmlns="http://www.w3.org/2000/svg" viewBox="0 0 150 150"><g id="Raggruppa_1094" data-name="Raggruppa 1094"><path id="Tracciato_1188" data-name="Tracciato 1188" d="M55.75,100.24,6.55,72.36a2.51,2.51,0,0,0-3.44.93,2.56,2.56,0,0,0-.34,1.26V131.1a2.53,2.53,0,0,0,2.53,2.53H109a2.53,2.53,0,0,0,2.53-2.53V95.28a2.52,2.52,0,0,0-2.42-2.49,41.32,41.32,0,0,1-23.31-9.13,2.46,2.46,0,0,0-3-.17L58.43,100.13A2.52,2.52,0,0,1,55.75,100.24Zm21-26.95a40.89,40.89,0,0,1-6-18.77,2.51,2.51,0,0,0-2.47-2.43H8.48A5.71,5.71,0,0,0,2.77,57.8h0a5.71,5.71,0,0,0,2.93,5l50,27.89a2.48,2.48,0,0,0,2.77-.2l17.76-13.9a2.5,2.5,0,0,0,.56-3.29Z" style="fill:#a5a4bd;fill-rule:evenodd"/><path id="Tracciato_1189" data-name="Tracciato 1189" d="M143.84,44.58h-3.76a3.41,3.41,0,0,1-3.16-2.26c-.15-.45-.37-.9-.53-1.28a3.31,3.31,0,0,1,.66-3.83l2.7-2.71a3.36,3.36,0,0,0,.07-4.75l-.07-.07-5.9-5.9a3.35,3.35,0,0,0-4.75-.06l-.06.06-2.71,2.71a3.46,3.46,0,0,1-3.84.66c-.44-.15-.82-.38-1.27-.54a3.38,3.38,0,0,1-2.22-3.1V19.75a3.37,3.37,0,0,0-3.36-3.38h-8.3A3.37,3.37,0,0,0,104,19.72v3.87a3.32,3.32,0,0,1-2.26,3.16,8.69,8.69,0,0,0-1.27.52,3.46,3.46,0,0,1-3.84-.66l-2.71-2.7a3.35,3.35,0,0,0-4.75-.06l-.06.06-5.9,5.86a3.37,3.37,0,0,0-.07,4.76l.07.06,2.7,2.71a3.44,3.44,0,0,1,.66,3.83A9.33,9.33,0,0,0,86,42.45a3.41,3.41,0,0,1-3.16,2.25H79.07a3.38,3.38,0,0,0-3.39,3.36v8.22a3.36,3.36,0,0,0,3.39,3.31h3.68a3.34,3.34,0,0,1,3.16,2.26c.15.45.37.9.53,1.35A3.49,3.49,0,0,1,85.78,67l-2.62,2.62a3.37,3.37,0,0,0-.07,4.76l.07.06,5.9,5.9a3.35,3.35,0,0,0,4.75.06l.06-.06,2.56-2.56a3.31,3.31,0,0,1,3.76-.65c.53.22,1,.44,1.5.65A3.44,3.44,0,0,1,103.88,81v3.49a3.36,3.36,0,0,0,3.35,3.38h8.3a3.36,3.36,0,0,0,3.4-3.34V80.78a3.4,3.4,0,0,1,2.19-3.15,10,10,0,0,0,1.5-.66,3.31,3.31,0,0,1,3.76.66l2.56,2.55a3.35,3.35,0,0,0,4.75.06l.06-.06,5.87-5.9a3.35,3.35,0,0,0,.06-4.75l-.06-.07L137.07,67a3.41,3.41,0,0,1-.66-3.83,9.81,9.81,0,0,0,.53-1.36,3.41,3.41,0,0,1,3.16-2.26h3.74a3.37,3.37,0,0,0,3.39-3.35V47.89A3.36,3.36,0,0,0,143.84,44.58ZM111.47,65.26A13.16,13.16,0,1,1,124.64,52.1h0a13.11,13.11,0,0,1-13.06,13.16Z" style="fill:#a5a4bd"/></g></svg>