<svg id="Livello_1" data-name="Livello 1" xmlns="http://www.w3.org/2000/svg" viewBox="0 0 150 150"><path d="M137,34a4.12,4.12,0,0,0-3.87-2.57H120.27V18.58a3.75,3.75,0,0,0-2.57-3.87,3.93,3.93,0,0,0-4.73.86L102.66,25.88a61.36,61.36,0,0,0-29.22-7.3,59.49,59.49,0,1,0,52.85,30.93L136.6,39.2C137.46,37.48,137.89,35.76,137,34Zm-21,6h6.87l-8.59,8.59H103.09V37.48l8.59-8.59v6.87A4.06,4.06,0,0,0,116,40.06ZM94.49,78.73A21.48,21.48,0,1,1,73,57.25a23.07,23.07,0,0,1,12,3.43l-15,15a4.16,4.16,0,0,0,0,6,4.16,4.16,0,0,0,6,0l15-15A23.07,23.07,0,0,1,94.49,78.73Zm30.08,0A51.56,51.56,0,1,1,73,27.17a52.56,52.56,0,0,1,23.2,5.15l-.43.43a3.9,3.9,0,0,0-1.29,3V51.23l-3.43,3.44a29.41,29.41,0,0,0-18-6,30.08,30.08,0,1,0,30.08,30.08,29.41,29.41,0,0,0-6-18.05l3.44-3.43H116A3.9,3.9,0,0,0,119,56l.43-.43A52.56,52.56,0,0,1,124.57,78.73Z" style="fill:#a5a4bd"/></svg>