<svg id="Livello_1" data-name="Livello 1" xmlns="http://www.w3.org/2000/svg" viewBox="0 0 150 150"><path id="Tracciato_826" data-name="Tracciato 826" d="M138.76,71.16,108,36a4.69,4.69,0,0,0-6.58-.61,5.85,5.85,0,0,0-.61.61,6,6,0,0,0,0,7.67L128.22,75l-27.39,31.38a6,6,0,0,0,0,7.67,4.69,4.69,0,0,0,6.58.61,5.85,5.85,0,0,0,.61-.61l30.74-35.2a6,6,0,0,0,0-7.68M49.16,36a4.66,4.66,0,0,0-6.57-.61A4.4,4.4,0,0,0,42,36L11.24,71.17a5.94,5.94,0,0,0,0,7.67L42,114a4.67,4.67,0,0,0,6.58.61,4.32,4.32,0,0,0,.6-.61,5.94,5.94,0,0,0,0-7.67L21.77,75,49.16,43.63a5.94,5.94,0,0,0,0-7.67m35.78-9.68a4.34,4.34,0,0,0-5.32,3.07L55.73,118.4a4.35,4.35,0,1,0,8.4,2.24L88,31.59A4.34,4.34,0,0,0,85,26.27h0" style="fill:#a5a4be;fill-rule:evenodd"/></svg>