<svg id="Livello_1" data-name="Livello 1" xmlns="http://www.w3.org/2000/svg" viewBox="0 0 150 150"><g id="Raggruppa_1166" data-name="Raggruppa 1166"><path id="Tracciato_901" data-name="Tracciato 901" d="M41.07,27H94.59a16.07,16.07,0,0,1,16,16.05V93.79H39.38V27Zm53.52,3.36H42.76V90.4h64.49V43A12.72,12.72,0,0,0,94.59,30.35Z" style="fill:#f49848"/><path id="Tracciato_902" data-name="Tracciato 902" d="M119.74,123H28.56V90.4h92.88V123Zm-87.8-3.37h86.12V93.79H31.94Z" style="fill:#f49848"/><path id="Tracciato_903" data-name="Tracciato 903" d="M51.31,47.52H98.7V50.9H51.31Z" style="fill:#f49848"/><path id="Tracciato_904" data-name="Tracciato 904" d="M51.31,59.4H98.7v3.38H51.31Z" style="fill:#f49848"/><path id="Tracciato_905" data-name="Tracciato 905" d="M51.31,71.27H98.7v3.38H51.31Z" style="fill:#f49848"/><path id="Tracciato_906" data-name="Tracciato 906" d="M47.58,97.93H53v9.55a14.94,14.94,0,0,1-.53,4.57,5.25,5.25,0,0,1-2.14,2.66,7.23,7.23,0,0,1-4.12,1.09,9.52,9.52,0,0,1-4.12-.72A5.21,5.21,0,0,1,39.84,113a7.89,7.89,0,0,1-.94-3.42l5.18-.7a5.87,5.87,0,0,0,.2,1.72,1.79,1.79,0,0,0,.65.9,1.44,1.44,0,0,0,.88.23,1.48,1.48,0,0,0,1.34-.69,4.6,4.6,0,0,0,.42-2.28V97.93Zm8.09,11.75,5.14-.34a3.92,3.92,0,0,0,.69,1.92,2.86,2.86,0,0,0,2.39,1.06,2.66,2.66,0,0,0,1.8-.53,1.56,1.56,0,0,0,0-2.48,6.92,6.92,0,0,0-2.78-1,11.77,11.77,0,0,1-5.09-2.13,4.27,4.27,0,0,1-1.52-3.37,4.54,4.54,0,0,1,.78-2.56,5.18,5.18,0,0,1,2.35-1.89,10.93,10.93,0,0,1,4.31-.69A8.83,8.83,0,0,1,68.9,98.9a5.44,5.44,0,0,1,2.1,4l-5.09.32a2.4,2.4,0,0,0-2.5-2.28l-.16,0a2.15,2.15,0,0,0-1.43.39,1.22,1.22,0,0,0-.47,1,1,1,0,0,0,.39.76,4.35,4.35,0,0,0,1.82.63,22.73,22.73,0,0,1,5.09,1.57,5.35,5.35,0,0,1,2.23,2,4.92,4.92,0,0,1,.7,2.59,5.54,5.54,0,0,1-.93,3.11A5.85,5.85,0,0,1,68,115.06a10.68,10.68,0,0,1-4.22.74,8.68,8.68,0,0,1-6.2-1.73,6.73,6.73,0,0,1-1.95-4.37Zm18-3a8.3,8.3,0,0,1,9-9A9.19,9.19,0,0,1,89.42,100a8.88,8.88,0,0,1,2.35,6.58,10.76,10.76,0,0,1-1,5,7.35,7.35,0,0,1-3,3.06,9.8,9.8,0,0,1-4.87,1.09,11.18,11.18,0,0,1-4.91-.94,7.46,7.46,0,0,1-3.13-3A10,10,0,0,1,73.62,106.7Zm5.43,0a5.87,5.87,0,0,0,1,3.82,3.74,3.74,0,0,0,5.29.13.94.94,0,0,1,.1-.1,6.53,6.53,0,0,0,1-4.08,5.46,5.46,0,0,0-1-3.63,3.44,3.44,0,0,0-2.71-1.14A3.29,3.29,0,0,0,80,102.9a5.93,5.93,0,0,0-1,3.84Zm15.7-8.8h5.06l6.61,9.7V97.93h5.09v17.54h-5.09l-6.58-9.63v9.63H94.75V97.93Z" style="fill:#f49848"/></g></svg>