<svg id="Livello_1" data-name="Livello 1" xmlns="http://www.w3.org/2000/svg" viewBox="0 0 150 150"><path d="M100.1,16.55a2.51,2.51,0,0,0-2.51-1.78h-5a2.51,2.51,0,0,0-2.51-2.51H59.94a2.51,2.51,0,0,0-2.51,2.51h-5a2.51,2.51,0,0,0-2.51,1.88c-.75,3,0,9.26,7.53,13.1v5.09a12.55,12.55,0,0,0,10,12.3V49.9A2.51,2.51,0,0,0,70,52.41h2.51v2.51h-5a10,10,0,0,0-10,10,2.51,2.51,0,0,0,2.51,2.51H90.06A2.51,2.51,0,0,0,92.57,65a10,10,0,0,0-10-10h-5V52.41H80a2.51,2.51,0,0,0,2.51-2.51V47.14a12.55,12.55,0,0,0,10-12.3V29.65C100.1,25.81,100.77,19.51,100.1,16.55ZM54.92,19.79h2.51v4A7,7,0,0,1,54.92,19.79Zm37.65,4v-4h2.51a7.19,7.19,0,0,1-2.51,3.89Zm45.17,63.77v47.68a2.51,2.51,0,0,1-2.51,2.51H100.1V85h35.13A2.51,2.51,0,0,1,137.74,87.55ZM95.08,137.74H54.92V70H95.08Zm-45.18,0H14.77a2.51,2.51,0,0,1-2.51-2.51V102.61a2.51,2.51,0,0,1,2.51-2.51H49.9Z" style="fill:#a5a4bd"/></svg>