<svg xmlns="http://www.w3.org/2000/svg" width="24.8" height="24.8" viewBox="0 0 24.8 24.8"><defs><style>.a{fill:#a3a0fb;}</style></defs><g transform="translate(61 19)"><g transform="translate(-61 -19)"><path class="a" d="M12.4,0A12.462,12.462,0,0,0,0,12.4,12.462,12.462,0,0,0,12.4,24.8,12.462,12.462,0,0,0,24.8,12.4,12.528,12.528,0,0,0,12.4,0Zm0,23.2A10.884,10.884,0,0,1,1.6,12.4,10.884,10.884,0,0,1,12.4,1.6,10.884,10.884,0,0,1,23.2,12.4,10.884,10.884,0,0,1,12.4,23.2Z"/><path class="a" d="M13.5,18.2a1,1,0,0,1-1,1h-.3a1,1,0,0,1-1-1V9.9a1,1,0,0,1,1-1h.3a1,1,0,0,1,1,1Z"/><circle class="a" cx="1.1" cy="1.1" r="1.1" transform="translate(11.3 5.6)"/></g></g></svg>