<svg id="Livello_1" data-name="Livello 1" xmlns="http://www.w3.org/2000/svg" viewBox="0 0 150 150"><path d="M112.73,74.93H77.86a2.79,2.79,0,0,0-2.93,2.93v34.87a2.79,2.79,0,0,0,2.93,2.93h34.87a2.79,2.79,0,0,0,2.93-2.93V77.86A2.79,2.79,0,0,0,112.73,74.93Z" style="fill:#a5a4bd"/><path d="M37.13,57.5h75.6a2.79,2.79,0,0,0,2.93-2.93V37.13a2.72,2.72,0,0,0-2.93-2.93H37.13a2.79,2.79,0,0,0-2.93,2.93V54.57A2.79,2.79,0,0,0,37.13,57.5Z" style="fill:#a5a4bd"/><path d="M37.13,115.66H54.57a2.79,2.79,0,0,0,2.93-2.93V77.86a2.72,2.72,0,0,0-2.93-2.93H37.13a2.79,2.79,0,0,0-2.93,2.93v34.87A2.87,2.87,0,0,0,37.13,115.66Z" style="fill:#a5a4bd"/><path d="M138.81,5.19H11.05a5.89,5.89,0,0,0-5.86,5.86V139a5.89,5.89,0,0,0,5.86,5.86H139a5.89,5.89,0,0,0,5.86-5.86V11.05A6.11,6.11,0,0,0,138.81,5.19Zm-5.72,127.9H16.77V16.77H133V133.09Z" style="fill:#a5a4bd"/></svg>