<svg xmlns="http://www.w3.org/2000/svg" viewBox="0 0 150 150"><path d="M98.41,54.26,67.48,73.44A14.79,14.79,0,0,0,60.61,85.9a14.45,14.45,0,0,0,26.92,7.16L106.14,61.7C109.15,56.83,103.42,51.11,98.41,54.26Z" style="fill:currentColor"/><path d="M74.93,19.75a68.08,68.08,0,0,0-68,68,66.66,66.66,0,0,0,8.88,33.51,5.65,5.65,0,0,0,5,2.86H129.2a5.77,5.77,0,0,0,5-2.86A67.94,67.94,0,0,0,74.93,19.75Zm50.69,92.93H24.24A57.22,57.22,0,0,1,18.8,93.63h9.31a5.73,5.73,0,0,0,0-11.45H18.8A56.5,56.5,0,0,1,31.11,52.39L37.7,59a5.73,5.73,0,0,0,4.15,1.72A6,6,0,0,0,46,59a5.69,5.69,0,0,0,0-8.16l-6.58-6.59A56.6,56.6,0,0,1,69.2,31.78v9.3a5.73,5.73,0,1,0,11.46,0v-9.3A56.26,56.26,0,0,1,131.06,82h-9.31a5.73,5.73,0,0,0,0,11.46h9.31A59.3,59.3,0,0,1,125.62,112.68Z" style="fill:currentColor"/></svg>