<svg xmlns="http://www.w3.org/2000/svg" width="16.404" height="17.04" viewBox="0 0 16.404 17.04"><defs><style>.a{fill:#4d4f5c;}</style></defs><g transform="translate(-6.668 -4.987)"><path class="a" d="M22.516,7.242h0a.33.33,0,0,1,.076.227l-.019,4.221a.266.266,0,0,1-.3.246l-4.126-.909a.36.36,0,0,1-.208-.132h0a.356.356,0,0,1,.057-.492l.871-.7A5.429,5.429,0,0,0,9.551,12.05a1.479,1.479,0,0,1-1.457,1.117h0a1.457,1.457,0,0,1-1.382-1.8A8.352,8.352,0,0,1,21.154,7.886l.871-.7A.358.358,0,0,1,22.516,7.242Z" transform="translate(0)"/><path class="a" d="M9.276,57.641h0a.33.33,0,0,1-.076-.227l.019-4.221a.266.266,0,0,1,.3-.246l4.126.909a.36.36,0,0,1,.208.132h0a.356.356,0,0,1-.057.492l-.871.681a5.429,5.429,0,0,0,9.313-2.347A1.479,1.479,0,0,1,23.7,51.7h0a1.457,1.457,0,0,1,1.382,1.8A8.349,8.349,0,0,1,10.639,57l-.871.7A.358.358,0,0,1,9.276,57.641Z" transform="translate(-2.053 -37.868)"/></g></svg>