<svg id="Livello_1" data-name="Livello 1" xmlns="http://www.w3.org/2000/svg" viewBox="0 0 150 150"><path id="Tracciato_815" data-name="Tracciato 815" d="M91,31.71l9,8.08L85,57.91l21.7,8.51-3.76,11.29L80.37,68.76,79,93.76l-12.09-.58,1.48-24.46-22,5.71L43.3,62.53l22.46-5.84-13-20.31,9.79-6.08L75.49,50.72Z" style="fill:#aeafce"/><path d="M22.21,9.42A19.94,19.94,0,0,0,2.33,29.3V94a19.94,19.94,0,0,0,19.88,19.87H29V136a4.55,4.55,0,0,0,7.78,3.22l25.35-25.35h65.67A19.92,19.92,0,0,0,147.67,94V29.3A19.92,19.92,0,0,0,127.82,9.42Zm0,9.08H127.82a10.65,10.65,0,0,1,10.76,10.8V94a10.64,10.64,0,0,1-10.76,10.79H60.27a4.53,4.53,0,0,0-3.22,1.3l-18.94,19V109.32a4.54,4.54,0,0,0-4.53-4.52H22.21A10.68,10.68,0,0,1,11.42,94V29.3A10.68,10.68,0,0,1,22.21,18.5Z" style="fill:#a5a4be"/></svg>