<svg id="Livello_1" data-name="Livello 1" xmlns="http://www.w3.org/2000/svg" viewBox="0 0 150 150"><path id="Tracciato_419" data-name="Tracciato 419" d="M72.33,41.26a15.36,15.36,0,0,1-3.84-3.53h0A15.07,15.07,0,0,1,67.2,39.2h0a15.33,15.33,0,0,1-2.55,2.06h0V78.9H20.44V47.11a9.52,9.52,0,0,1,9.5-9.53H40.27l-.53-.52a23.46,23.46,0,0,1-5.05-7.4,20.42,20.42,0,0,1-1.77-8.25,17.28,17.28,0,0,1,1.13-6.32A15.61,15.61,0,0,1,43.1,6a17.28,17.28,0,0,1,6.32-1.13,20.59,20.59,0,0,1,8.25,1.77,23.65,23.65,0,0,1,7.38,5.05A23.83,23.83,0,0,1,68.47,16a24.33,24.33,0,0,1,3.43-4.27h0a23.5,23.5,0,0,1,7.41-5.05,20.54,20.54,0,0,1,8.24-1.77A17.33,17.33,0,0,1,93.88,6a15.54,15.54,0,0,1,9.05,9.05,17.28,17.28,0,0,1,1.13,6.32,20.76,20.76,0,0,1-1.77,8.25,23.62,23.62,0,0,1-5.05,7.4l-.53.51H107a9.52,9.52,0,0,1,9.53,9.5V78.9H72.33Zm5-24.09a16.56,16.56,0,0,1,5.06-3.46,13.44,13.44,0,0,1,5.23-1.11,10.15,10.15,0,0,1,3.53.63,8,8,0,0,1,4.62,4.62,10.15,10.15,0,0,1,.63,3.53,13.45,13.45,0,0,1-1.12,5.23,16.56,16.56,0,0,1-3.46,5.06,15.86,15.86,0,0,1-5,3.43,12.65,12.65,0,0,1-5.21,1.12A9.49,9.49,0,0,1,78,35.6,8.15,8.15,0,0,1,73.41,31a10.16,10.16,0,0,1-.63-3.54,13.19,13.19,0,0,1,1.13-5.21,15.73,15.73,0,0,1,3.44-5ZM61.77,33.76A7.84,7.84,0,0,1,59,35.58a9.71,9.71,0,0,1-3.54.62,13,13,0,0,1-5.2-1.12,16,16,0,0,1-5.06-3.44,16.7,16.7,0,0,1-3.46-5.05,13.63,13.63,0,0,1-1.11-5.23,9.94,9.94,0,0,1,.63-3.54,8,8,0,0,1,4.61-4.61,10.07,10.07,0,0,1,3.52-.61,13.45,13.45,0,0,1,5.23,1.12,16.35,16.35,0,0,1,5,3.46,15.73,15.73,0,0,1,3.44,5.05,13.15,13.15,0,0,1,1.13,5.21A10.15,10.15,0,0,1,63.59,31,7.84,7.84,0,0,1,61.77,33.76Zm2.87,94.15H30a9.51,9.51,0,0,1-9.53-9.5V86.59H64.65v41.32Z" style="fill:#a5a4be;fill-rule:evenodd"/><path id="Tracciato_1189" data-name="Tracciato 1189" d="M126.68,108.27h-3.2a2.89,2.89,0,0,1-2.69-1.92c-.13-.38-.32-.77-.45-1.09a2.8,2.8,0,0,1,.56-3.26l2.3-2.3a2.86,2.86,0,0,0,0-4,.12.12,0,0,0,0-.05l-5-5a2.86,2.86,0,0,0-4.05-.06l0,.06-2.3,2.3a3,3,0,0,1-3.27.56c-.38-.13-.7-.32-1.08-.45a2.89,2.89,0,0,1-1.89-2.65V87.15a2.86,2.86,0,0,0-2.85-2.88H95.62a2.88,2.88,0,0,0-2.89,2.85v3.29a2.82,2.82,0,0,1-1.91,2.69,8,8,0,0,0-1.09.44A3,3,0,0,1,86.47,93l-2.31-2.31a2.86,2.86,0,0,0-4-.05l-.06.05-5,5a2.87,2.87,0,0,0-.05,4s0,0,.05,0l2.31,2.31a2.92,2.92,0,0,1,.55,3.26,10.06,10.06,0,0,0-.45,1.12,2.87,2.87,0,0,1-2.69,1.91h-3.2a2.88,2.88,0,0,0-2.88,2.86v7a2.87,2.87,0,0,0,2.88,2.82H74.7A2.83,2.83,0,0,1,77.39,123c.12.38.31.77.44,1.15a2.94,2.94,0,0,1-.56,3.26L75,129.61a2.87,2.87,0,0,0-.05,4l.05.05,5,5a2.86,2.86,0,0,0,4,.06l0-.06,2.18-2.17a2.84,2.84,0,0,1,3.2-.56l1.28.56a2.91,2.91,0,0,1,1.85,2.69v3a2.87,2.87,0,0,0,2.86,2.88h7.06a2.87,2.87,0,0,0,2.9-2.84v-3.17a2.89,2.89,0,0,1,1.85-2.69,7.64,7.64,0,0,0,1.28-.56,2.84,2.84,0,0,1,3.2.56l2.18,2.18a2.86,2.86,0,0,0,4,.05l.06-.05,5-5a2.87,2.87,0,0,0,0-4.05l0-.05-2.18-2.12a2.9,2.9,0,0,1-.55-3.26,11.42,11.42,0,0,0,.45-1.15A2.88,2.88,0,0,1,123.5,121h3.18a2.88,2.88,0,0,0,2.88-2.86v-7A2.86,2.86,0,0,0,126.68,108.27Zm-27.54,17.6a11.2,11.2,0,1,1,11.2-11.2h0a11.16,11.16,0,0,1-11.11,11.2Z" style="fill:#a5a4bd"/></svg>