<svg id="Livello_1" data-name="Livello 1" xmlns="http://www.w3.org/2000/svg" viewBox="0 0 150 150"><path d="M90.28,148.11a37.1,37.1,0,1,1,37.1-37.1A37.11,37.11,0,0,1,90.28,148.11Zm4.36-41.46v-2.19a4.37,4.37,0,0,0-8.73,0v2.19H83.73a4.37,4.37,0,0,0,0,8.73h2.18v2.18a4.37,4.37,0,0,0,8.73,0v-2.18h2.19a4.37,4.37,0,0,0,0-8.73Zm6.55-52.38a26.19,26.19,0,1,1,26.19-26.19A26.2,26.2,0,0,1,101.19,54.27Zm0-19.65a6.55,6.55,0,1,0-6.55-6.54A6.54,6.54,0,0,0,101.19,34.62ZM42.26,69.54A19.64,19.64,0,1,1,61.9,49.9,19.64,19.64,0,0,1,42.26,69.54Zm0-16.37A3.27,3.27,0,1,0,39,49.9,3.27,3.27,0,0,0,42.26,53.17ZM127.38,88a43.86,43.86,0,0,0-8.73-10.17V55.77a32.68,32.68,0,0,0,8.73-8.05ZM47.14,104.33l-11-21.92A4.36,4.36,0,1,1,44,78.5l6.88,13.75A43,43,0,0,0,47.14,104.33Zm2.11-79.68L62,17.7a4.36,4.36,0,1,1,4.18,7.66l-7.53,4.11A26.16,26.16,0,0,0,49.25,24.65Z" style="fill:#a5a4be"/></svg>