<svg id="Livello_1" data-name="Livello 1" xmlns="http://www.w3.org/2000/svg" viewBox="0 0 150 150"><path id="Tracciato_419" data-name="Tracciato 419" d="M79.53,45.4A18.45,18.45,0,0,1,75,41.25h0A19,19,0,0,1,73.49,43h0a18.51,18.51,0,0,1-3,2.43h0V89.71h-52V52.28A11.19,11.19,0,0,1,29.63,41.07H41.79l-.63-.62a27.71,27.71,0,0,1-5.95-8.71A24.35,24.35,0,0,1,33.13,22a20.53,20.53,0,0,1,1.33-7.44,18.65,18.65,0,0,1,4.19-6.48,18.91,18.91,0,0,1,6.47-4.18,20.53,20.53,0,0,1,7.44-1.33,24.35,24.35,0,0,1,9.7,2.08,27.74,27.74,0,0,1,8.69,6,28.17,28.17,0,0,1,4,5,28.62,28.62,0,0,1,4-5h0a27.79,27.79,0,0,1,8.73-5.95,24.35,24.35,0,0,1,9.7-2.08,20.53,20.53,0,0,1,7.44,1.33,18.86,18.86,0,0,1,6.48,4.18,18.62,18.62,0,0,1,4.18,6.48A20.53,20.53,0,0,1,116.87,22a24.35,24.35,0,0,1-2.08,9.7,27.71,27.71,0,0,1-6,8.71l-.63.61h12.12a11.19,11.19,0,0,1,11.21,11.18V89.71h-52ZM85.41,17a19.27,19.27,0,0,1,6-4.07,16.08,16.08,0,0,1,6.15-1.31,11.83,11.83,0,0,1,4.17.75,9.35,9.35,0,0,1,5.43,5.43,11.81,11.81,0,0,1,.74,4.16,15.94,15.94,0,0,1-1.31,6.16,19.58,19.58,0,0,1-4.07,5.94,18.87,18.87,0,0,1-6,4,15.07,15.07,0,0,1-6.13,1.31,11.15,11.15,0,0,1-4.16-.72,9.65,9.65,0,0,1-5.44-5.43,12.05,12.05,0,0,1-.74-4.17A15.55,15.55,0,0,1,81.38,23a18.49,18.49,0,0,1,4.05-5.95ZM67.09,36.57a9.27,9.27,0,0,1-3.28,2.14,11.37,11.37,0,0,1-4.16.73,15,15,0,0,1-6.13-1.32,18.62,18.62,0,0,1-6-4,19.27,19.27,0,0,1-4.07-5.95A16.1,16.1,0,0,1,42.18,22a11.82,11.82,0,0,1,.75-4.16,9.35,9.35,0,0,1,5.43-5.43,11.87,11.87,0,0,1,4.14-.72A15.91,15.91,0,0,1,58.65,13a19.27,19.27,0,0,1,5.95,4.07A18.65,18.65,0,0,1,68.65,23,15.74,15.74,0,0,1,70,29.13a11.82,11.82,0,0,1-.75,4.16A9.05,9.05,0,0,1,67.09,36.57ZM79.53,147.39h40.81a11.2,11.2,0,0,0,11.21-11.18V98.75h-52Zm-9.06,0H29.66a11.2,11.2,0,0,1-11.21-11.18V98.75h52v48.64Z" style="fill:#a5a4be;fill-rule:evenodd"/></svg>