<svg id="Livello_1" data-name="Livello 1" xmlns="http://www.w3.org/2000/svg" viewBox="0 0 150 150"><path d="M49.89,49.42v84.05a3.69,3.69,0,0,1-3.72,3.65H27.57a3.69,3.69,0,0,1-3.72-3.65v-84H14.54a3.65,3.65,0,0,1-3-5.85L33.89,14.34a3.76,3.76,0,0,1,6,0L62.17,43.57a3.65,3.65,0,0,1-3,5.85Zm54,40.2h-13a7.38,7.38,0,0,0-7.45,7.31v36.54a3.69,3.69,0,0,1-3.72,3.65H61.05a3.69,3.69,0,0,1-3.72-3.65V96.93c0-18.17,15-32.89,33.49-32.89h13V54.9a3.72,3.72,0,0,1,6-2.85L137.79,74a3.62,3.62,0,0,1,0,5.71l-27.91,21.93a3.73,3.73,0,0,1-6-2.86Z" style="fill:#a5a4bd"/></svg>