<svg id="Livello_1" data-name="Livello 1" xmlns="http://www.w3.org/2000/svg" viewBox="0 0 150 150"><g id="Raggruppa_1054" data-name="Raggruppa 1054"><path id="Tracciato_763-2" data-name="Tracciato 763-2" d="M112.11,30.15H88a9.69,9.69,0,0,0-9.6-9.68H71.94a9.69,9.69,0,0,0-9.67,9.68H38.18a9.69,9.69,0,0,0-9.68,9.6v1.41A1.81,1.81,0,0,0,30.29,43h89.37a1.81,1.81,0,0,0,1.83-1.79V39.75a9.27,9.27,0,0,0-8.95-9.59Z" style="fill:#4d505d"/><path id="Tracciato_764-2" data-name="Tracciato 764-2" d="M36.73,119.85a9.75,9.75,0,0,0,9.68,9.68h57.77a9.75,9.75,0,0,0,9.68-9.68V49.43H36.73Zm47-48.77A4.33,4.33,0,0,1,88,66.73h0a4.38,4.38,0,0,1,4.35,4.35v36.57A4.35,4.35,0,0,1,88,112h0a4.38,4.38,0,0,1-4.34-4.35Zm-25.54,0a4.34,4.34,0,0,1,4.34-4.35h0a4.39,4.39,0,0,1,4.35,4.35v36.57A4.35,4.35,0,0,1,62.5,112h0a4.4,4.4,0,0,1-4.35-4.35Z" style="fill:#4d505d"/></g></svg>