<svg xmlns="http://www.w3.org/2000/svg" width="91" height="102" viewBox="0 0 91 102"><g transform="translate(-687 -489)"><g transform="translate(720 537)" fill="none" stroke="#a3a5c7" stroke-width="2"><rect width="58" height="8" stroke="none"/><rect x="1" y="1" width="56" height="6" fill="none"/></g><g transform="translate(720 568)" fill="none" stroke="#a3a5c7" stroke-width="2"><rect width="58" height="8" stroke="none"/><rect x="1" y="1" width="56" height="6" fill="none"/></g><g transform="translate(720 552)" fill="none" stroke="#a3a5c7" stroke-width="2"><rect width="58" height="8" stroke="none"/><rect x="1" y="1" width="56" height="6" fill="none"/></g><g transform="translate(720 583)" fill="none" stroke="#a3a5c7" stroke-width="2"><rect width="58" height="8" stroke="none"/><rect x="1" y="1" width="56" height="6" fill="none"/></g><g transform="translate(739 490)" fill="none" stroke="#a3a5c7" stroke-width="2"><rect width="39" height="7" stroke="none"/><rect x="1" y="1" width="37" height="5" fill="none"/></g><g transform="translate(739 506)" fill="none" stroke="#a3a5c7" stroke-width="2"><rect width="39" height="7" stroke="none"/><rect x="1" y="1" width="37" height="5" fill="none"/></g><g transform="translate(739 522)" fill="none" stroke="#a3a5c7" stroke-width="2"><rect width="39" height="7" stroke="none"/><rect x="1" y="1" width="37" height="5" fill="none"/></g><g transform="translate(687 489)" fill="none" stroke="#a3a5c7" stroke-width="2"><rect width="45" height="40" stroke="none"/><rect x="1" y="1" width="43" height="38" fill="none"/></g><g transform="translate(687 537)" fill="none" stroke="#a3a5c7" stroke-width="2"><rect width="23" height="23" stroke="none"/><rect x="1" y="1" width="21" height="21" fill="none"/></g><g transform="translate(687 568)" fill="none" stroke="#a3a5c7" stroke-width="2"><rect width="23" height="23" stroke="none"/><rect x="1" y="1" width="21" height="21" fill="none"/></g></g></svg>