<svg xmlns="http://www.w3.org/2000/svg" width="91" height="103" viewBox="0 0 91 103"><g transform="translate(-687 -488)"><g transform="translate(687 488)" fill="none" stroke="#a3a5c7" stroke-width="2"><rect width="91" height="8" stroke="none"/><rect x="1" y="1" width="89" height="6" fill="none"/></g><g transform="translate(687 503)" fill="none" stroke="#a3a5c7" stroke-width="2"><rect width="91" height="8" stroke="none"/><rect x="1" y="1" width="89" height="6" fill="none"/></g><g transform="translate(688 518)" fill="none" stroke="#a3a5c7" stroke-width="2"><rect width="41" height="24" stroke="none"/><rect x="1" y="1" width="39" height="22" fill="none"/></g><g transform="translate(688 558)" fill="none" stroke="#a3a5c7" stroke-width="2"><rect width="41" height="24" stroke="none"/><rect x="1" y="1" width="39" height="22" fill="none"/></g><g transform="translate(737 518)" fill="none" stroke="#a3a5c7" stroke-width="2"><rect width="41" height="24" stroke="none"/><rect x="1" y="1" width="39" height="22" fill="none"/></g><g transform="translate(737 558)" fill="none" stroke="#a3a5c7" stroke-width="2"><rect width="41" height="24" stroke="none"/><rect x="1" y="1" width="39" height="22" fill="none"/></g><g transform="translate(688 544)" fill="none" stroke="#a3a5c7" stroke-width="2"><rect width="41" height="7" stroke="none"/><rect x="1" y="1" width="39" height="5" fill="none"/></g><g transform="translate(688 584)" fill="none" stroke="#a3a5c7" stroke-width="2"><rect width="41" height="7" stroke="none"/><rect x="1" y="1" width="39" height="5" fill="none"/></g><g transform="translate(737 544)" fill="none" stroke="#a3a5c7" stroke-width="2"><rect width="41" height="7" stroke="none"/><rect x="1" y="1" width="39" height="5" fill="none"/></g><g transform="translate(737 584)" fill="none" stroke="#a3a5c7" stroke-width="2"><rect width="41" height="7" stroke="none"/><rect x="1" y="1" width="39" height="5" fill="none"/></g></g></svg>