<svg xmlns="http://www.w3.org/2000/svg" width="91" height="105" viewBox="0 0 91 105"><g transform="translate(-687 -488)"><g transform="translate(687 488)" fill="none" stroke="#a3a5c7" stroke-width="2"><rect width="91" height="13" stroke="none"/><rect x="1" y="1" width="89" height="11" fill="none"/></g><g transform="translate(687 506)" fill="none" stroke="#a3a5c7" stroke-width="2"><rect width="91" height="8" stroke="none"/><rect x="1" y="1" width="89" height="6" fill="none"/></g><g transform="translate(687 571)" fill="none" stroke="#a3a5c7" stroke-width="2"><rect width="91" height="8" stroke="none"/><rect x="1" y="1" width="89" height="6" fill="none"/></g><g transform="translate(687 523)" fill="none" stroke="#a3a5c7" stroke-width="2"><rect width="39" height="7" stroke="none"/><rect x="1" y="1" width="37" height="5" fill="none"/></g><g transform="translate(733 522)" fill="none" stroke="#a3a5c7" stroke-width="2"><rect width="45" height="40" stroke="none"/><rect x="1" y="1" width="43" height="38" fill="none"/></g><g transform="translate(687 539)" fill="none" stroke="#a3a5c7" stroke-width="2"><rect width="39" height="7" stroke="none"/><rect x="1" y="1" width="37" height="5" fill="none"/></g><g transform="translate(687 555)" fill="none" stroke="#a3a5c7" stroke-width="2"><rect width="39" height="7" stroke="none"/><rect x="1" y="1" width="37" height="5" fill="none"/></g><g transform="translate(687 585)" fill="none" stroke="#a3a5c7" stroke-width="2"><rect width="91" height="8" stroke="none"/><rect x="1" y="1" width="89" height="6" fill="none"/></g></g></svg>